<?xml version="1.0" encoding="utf-8" standalone="no"?>
<!DOCTYPE svg PUBLIC "-//W3C//DTD SVG 1.1//EN"
  "http://www.w3.org/Graphics/SVG/1.1/DTD/svg11.dtd">
<svg xmlns:xlink="http://www.w3.org/1999/xlink" width="432pt" height="288pt" viewBox="0 0 432 288" xmlns="http://www.w3.org/2000/svg" version="1.1">
 <metadata>
  <rdf:RDF xmlns:dc="http://purl.org/dc/elements/1.1/" xmlns:cc="http://creativecommons.org/ns#" xmlns:rdf="http://www.w3.org/1999/02/22-rdf-syntax-ns#">
   <cc:Work>
    <dc:type rdf:resource="http://purl.org/dc/dcmitype/StillImage"/>
    <dc:date>2025-03-24T23:16:26.973892</dc:date>
    <dc:format>image/svg+xml</dc:format>
    <dc:creator>
     <cc:Agent>
      <dc:title>Matplotlib v3.5.2, https://matplotlib.org/</dc:title>
     </cc:Agent>
    </dc:creator>
   </cc:Work>
  </rdf:RDF>
 </metadata>
 <defs>
  <style type="text/css">*{stroke-linejoin: round; stroke-linecap: butt}</style>
 </defs>
 <g id="figure_1">
  <g id="patch_1">
   <path d="M 0 288 
L 432 288 
L 432 0 
L 0 0 
L 0 288 
z
" style="fill: none"/>
  </g>
  <g id="axes_1">
   <g id="patch_2">
    <path d="M 54 252 
L 388.8 252 
L 388.8 34.56 
L 54 34.56 
z
" style="fill: #ffffff"/>
   </g>
   <g id="PolyCollection_1">
    <defs>
     <path id="med19932195" d="M 60.696 -202.143555 
L 60.696 -71.060417 
L 67.392 -64.699644 
L 74.088 -62.307404 
L 80.784 -64.801532 
L 87.48 -95.803736 
L 94.176 -95.833543 
L 100.872 -89.069794 
L 107.568 -83.715369 
L 114.264 -80.863574 
L 120.96 -83.806948 
L 127.656 -87.932784 
L 134.352 -93.115844 
L 141.048 -76.732586 
L 147.744 -73.431956 
L 154.44 -76.872844 
L 161.136 -82.041794 
L 167.832 -86.046755 
L 174.528 -87.817621 
L 181.224 -89.666786 
L 187.92 -88.639284 
L 194.616 -90.271971 
L 201.312 -90.877579 
L 208.008 -88.825329 
L 214.704 -86.74268 
L 221.4 -86.261163 
L 228.096 -87.695682 
L 234.792 -87.408958 
L 241.488 -87.800934 
L 248.184 -87.479892 
L 254.88 -88.951893 
L 261.576 -91.764625 
L 268.272 -92.695572 
L 274.968 -94.106352 
L 281.664 -93.182251 
L 288.36 -92.244846 
L 295.056 -89.721591 
L 301.752 -88.055451 
L 308.448 -86.799302 
L 315.144 -86.8228 
L 321.84 -87.563529 
L 328.536 -86.776762 
L 335.232 -86.282086 
L 341.928 -86.227325 
L 348.624 -87.33065 
L 355.32 -88.640027 
L 362.016 -89.64964 
L 368.712 -90.410716 
L 375.408 -90.869135 
L 382.104 -90.859816 
L 388.8 -90.053475 
L 388.8 -121.029383 
L 388.8 -121.029383 
L 382.104 -121.824519 
L 375.408 -121.343084 
L 368.712 -120.420783 
L 362.016 -119.283024 
L 355.32 -118.178702 
L 348.624 -117.415394 
L 341.928 -116.606695 
L 335.232 -117.368336 
L 328.536 -118.032939 
L 321.84 -119.428514 
L 315.144 -118.03427 
L 308.448 -117.392486 
L 301.752 -118.500244 
L 295.056 -120.122102 
L 288.36 -123.49408 
L 281.664 -123.868841 
L 274.968 -126.023602 
L 268.272 -123.605825 
L 261.576 -122.876037 
L 254.88 -119.475139 
L 248.184 -119.188367 
L 241.488 -121.350097 
L 234.792 -122.959109 
L 228.096 -125.405972 
L 221.4 -123.320714 
L 214.704 -123.340785 
L 208.008 -128.982319 
L 201.312 -133.802416 
L 194.616 -131.208346 
L 187.92 -131.09155 
L 181.224 -138.622969 
L 174.528 -135.421931 
L 167.832 -136.534269 
L 161.136 -130.697599 
L 154.44 -119.433164 
L 147.744 -112.536754 
L 141.048 -127.71233 
L 134.352 -157.600884 
L 127.656 -151.926609 
L 120.96 -146.584873 
L 114.264 -141.272911 
L 107.568 -159.392125 
L 100.872 -174.693089 
L 94.176 -193.878161 
L 87.48 -191.08529 
L 80.784 -141.528512 
L 74.088 -130.502649 
L 67.392 -151.428428 
L 60.696 -202.143555 
z
" style="stroke: #7f2704; stroke-opacity: 0.2"/>
    </defs>
    <g clip-path="url(#pb25c96afbd)">
     <use xlink:href="#med19932195" x="0" y="288" style="fill: #7f2704; fill-opacity: 0.2; stroke: #7f2704; stroke-opacity: 0.2"/>
    </g>
   </g>
   <g id="PolyCollection_2">
    <defs>
     <path id="ma07892a2ae" d="M 60.696 -205.374136 
L 60.696 -71.779941 
L 67.392 -64.274803 
L 74.088 -62.449282 
L 80.784 -65.414774 
L 87.48 -95.67576 
L 94.176 -96.45633 
L 100.872 -89.913715 
L 107.568 -84.618306 
L 114.264 -81.911291 
L 120.96 -85.68852 
L 127.656 -89.41087 
L 134.352 -94.388237 
L 141.048 -77.247819 
L 147.744 -73.098173 
L 154.44 -76.047445 
L 161.136 -79.885228 
L 167.832 -83.302811 
L 174.528 -84.140585 
L 181.224 -88.068817 
L 187.92 -88.89336 
L 194.616 -91.84014 
L 201.312 -92.981061 
L 208.008 -91.643857 
L 214.704 -90.636521 
L 221.4 -90.592858 
L 228.096 -91.756019 
L 234.792 -90.177827 
L 241.488 -88.807 
L 248.184 -87.209493 
L 254.88 -87.306169 
L 261.576 -89.408474 
L 268.272 -90.528276 
L 274.968 -93.377871 
L 281.664 -93.051324 
L 288.36 -92.035113 
L 295.056 -90.482804 
L 301.752 -90.226901 
L 308.448 -90.379965 
L 315.144 -90.463896 
L 321.84 -92.189328 
L 328.536 -90.840234 
L 335.232 -88.847505 
L 341.928 -87.357413 
L 348.624 -86.61113 
L 355.32 -87.000413 
L 362.016 -87.974898 
L 368.712 -89.080705 
L 375.408 -88.409131 
L 382.104 -87.438117 
L 388.8 -87.455712 
L 388.8 -118.304972 
L 388.8 -118.304972 
L 382.104 -118.623974 
L 375.408 -119.674247 
L 368.712 -120.533919 
L 362.016 -118.753367 
L 355.32 -116.762362 
L 348.624 -116.038575 
L 341.928 -116.25397 
L 335.232 -117.858839 
L 328.536 -120.180352 
L 321.84 -121.713002 
L 315.144 -119.396688 
L 308.448 -119.219937 
L 301.752 -119.005076 
L 295.056 -120.141493 
L 288.36 -122.846775 
L 281.664 -125.048287 
L 274.968 -126.193836 
L 268.272 -123.046231 
L 261.576 -121.24342 
L 254.88 -118.718769 
L 248.184 -120.300431 
L 241.488 -122.800468 
L 234.792 -125.964253 
L 228.096 -129.225718 
L 221.4 -127.538427 
L 214.704 -126.911377 
L 208.008 -130.924205 
L 201.312 -134.22842 
L 194.616 -131.401566 
L 187.92 -130.391588 
L 181.224 -135.847611 
L 174.528 -130.214661 
L 167.832 -132.429941 
L 161.136 -127.178915 
L 154.44 -118.409442 
L 147.744 -112.712006 
L 141.048 -126.624536 
L 134.352 -156.994142 
L 127.656 -151.145264 
L 120.96 -146.86147 
L 114.264 -141.182154 
L 107.568 -159.584977 
L 100.872 -174.740734 
L 94.176 -193.032165 
L 87.48 -191.690078 
L 80.784 -143.958713 
L 74.088 -133.190048 
L 67.392 -153.228934 
L 60.696 -205.374136 
z
" style="stroke: #e95e0d; stroke-opacity: 0.2"/>
    </defs>
    <g clip-path="url(#pb25c96afbd)">
     <use xlink:href="#ma07892a2ae" x="0" y="288" style="fill: #e95e0d; fill-opacity: 0.2; stroke: #e95e0d; stroke-opacity: 0.2"/>
    </g>
   </g>
   <g id="PolyCollection_3">
    <defs>
     <path id="m6635673d00" d="M 60.696 -207.424838 
L 60.696 -72.917209 
L 67.392 -65.573851 
L 74.088 -63.511849 
L 80.784 -65.756045 
L 87.48 -97.472714 
L 94.176 -96.630841 
L 100.872 -90.070482 
L 107.568 -84.720707 
L 114.264 -81.738101 
L 120.96 -85.825422 
L 127.656 -89.279956 
L 134.352 -93.805563 
L 141.048 -76.858274 
L 147.744 -74.219016 
L 154.44 -77.009986 
L 161.136 -80.245039 
L 167.832 -83.47573 
L 174.528 -82.939215 
L 181.224 -86.747051 
L 187.92 -87.741929 
L 194.616 -90.407462 
L 201.312 -91.635086 
L 208.008 -90.359807 
L 214.704 -88.97965 
L 221.4 -88.672094 
L 228.096 -89.980905 
L 234.792 -87.503549 
L 241.488 -86.981893 
L 248.184 -85.378897 
L 254.88 -85.853184 
L 261.576 -87.707375 
L 268.272 -89.57969 
L 274.968 -92.882945 
L 281.664 -93.063929 
L 288.36 -92.788664 
L 295.056 -90.910724 
L 301.752 -89.971404 
L 308.448 -89.510646 
L 315.144 -90.204897 
L 321.84 -92.331057 
L 328.536 -90.748044 
L 335.232 -89.42002 
L 341.928 -88.213989 
L 348.624 -86.811218 
L 355.32 -86.63879 
L 362.016 -87.377043 
L 368.712 -87.662573 
L 375.408 -86.550301 
L 382.104 -87.41408 
L 388.8 -88.247702 
L 388.8 -116.827817 
L 388.8 -116.827817 
L 382.104 -115.315554 
L 375.408 -113.874041 
L 368.712 -116.263859 
L 362.016 -115.948048 
L 355.32 -115.40863 
L 348.624 -115.436617 
L 341.928 -117.255521 
L 335.232 -118.568209 
L 328.536 -120.320632 
L 321.84 -122.547151 
L 315.144 -118.448358 
L 308.448 -117.377967 
L 301.752 -118.063709 
L 295.056 -119.627367 
L 288.36 -122.535469 
L 281.664 -123.485441 
L 274.968 -124.522439 
L 268.272 -120.756423 
L 261.576 -118.207351 
L 254.88 -115.948392 
L 248.184 -116.547732 
L 241.488 -119.237443 
L 234.792 -120.640367 
L 228.096 -125.153841 
L 221.4 -122.426051 
L 214.704 -122.834846 
L 208.008 -129.04317 
L 201.312 -131.949316 
L 194.616 -128.407129 
L 187.92 -128.249125 
L 181.224 -132.750246 
L 174.528 -127.516948 
L 167.832 -131.595302 
L 161.136 -126.00303 
L 154.44 -116.905143 
L 147.744 -111.933297 
L 141.048 -125.149131 
L 134.352 -155.810675 
L 127.656 -151.256297 
L 120.96 -146.294228 
L 114.264 -140.031053 
L 107.568 -158.803927 
L 100.872 -173.951487 
L 94.176 -191.87795 
L 87.48 -191.193681 
L 80.784 -140.28061 
L 74.088 -132.383592 
L 67.392 -153.740985 
L 60.696 -207.424838 
z
" style="stroke: #fdb97d; stroke-opacity: 0.2"/>
    </defs>
    <g clip-path="url(#pb25c96afbd)">
     <use xlink:href="#m6635673d00" x="0" y="288" style="fill: #fdb97d; fill-opacity: 0.2; stroke: #fdb97d; stroke-opacity: 0.2"/>
    </g>
   </g>
   <g id="matplotlib.axis_1">
    <g id="xtick_1">
     <g id="line2d_1">
      <defs>
       <path id="m17c4f2ba51" d="M 0 0 
L 0 8 
" style="stroke: #000000; stroke-width: 4"/>
      </defs>
      <g>
       <use xlink:href="#m17c4f2ba51" x="54" y="252" style="stroke: #000000; stroke-width: 4"/>
      </g>
     </g>
     <g id="text_1">
      <!-- 0 -->
      <g transform="translate(49.54625 274.137812)scale(0.14 -0.14)">
       <defs>
        <path id="DejaVuSans-30" d="M 2034 4250 
Q 1547 4250 1301 3770 
Q 1056 3291 1056 2328 
Q 1056 1369 1301 889 
Q 1547 409 2034 409 
Q 2525 409 2770 889 
Q 3016 1369 3016 2328 
Q 3016 3291 2770 3770 
Q 2525 4250 2034 4250 
z
M 2034 4750 
Q 2819 4750 3233 4129 
Q 3647 3509 3647 2328 
Q 3647 1150 3233 529 
Q 2819 -91 2034 -91 
Q 1250 -91 836 529 
Q 422 1150 422 2328 
Q 422 3509 836 4129 
Q 1250 4750 2034 4750 
z
" transform="scale(0.015625)"/>
       </defs>
       <use xlink:href="#DejaVuSans-30"/>
      </g>
     </g>
    </g>
    <g id="xtick_2">
     <g id="line2d_2">
      <g>
       <use xlink:href="#m17c4f2ba51" x="120.96" y="252" style="stroke: #000000; stroke-width: 4"/>
      </g>
     </g>
     <g id="text_2">
      <!-- 10 -->
      <g transform="translate(112.0525 274.137812)scale(0.14 -0.14)">
       <defs>
        <path id="DejaVuSans-31" d="M 794 531 
L 1825 531 
L 1825 4091 
L 703 3866 
L 703 4441 
L 1819 4666 
L 2450 4666 
L 2450 531 
L 3481 531 
L 3481 0 
L 794 0 
L 794 531 
z
" transform="scale(0.015625)"/>
       </defs>
       <use xlink:href="#DejaVuSans-31"/>
       <use xlink:href="#DejaVuSans-30" x="63.623047"/>
      </g>
     </g>
    </g>
    <g id="xtick_3">
     <g id="line2d_3">
      <g>
       <use xlink:href="#m17c4f2ba51" x="187.92" y="252" style="stroke: #000000; stroke-width: 4"/>
      </g>
     </g>
     <g id="text_3">
      <!-- 20 -->
      <g transform="translate(179.0125 274.137812)scale(0.14 -0.14)">
       <defs>
        <path id="DejaVuSans-32" d="M 1228 531 
L 3431 531 
L 3431 0 
L 469 0 
L 469 531 
Q 828 903 1448 1529 
Q 2069 2156 2228 2338 
Q 2531 2678 2651 2914 
Q 2772 3150 2772 3378 
Q 2772 3750 2511 3984 
Q 2250 4219 1831 4219 
Q 1534 4219 1204 4116 
Q 875 4013 500 3803 
L 500 4441 
Q 881 4594 1212 4672 
Q 1544 4750 1819 4750 
Q 2544 4750 2975 4387 
Q 3406 4025 3406 3419 
Q 3406 3131 3298 2873 
Q 3191 2616 2906 2266 
Q 2828 2175 2409 1742 
Q 1991 1309 1228 531 
z
" transform="scale(0.015625)"/>
       </defs>
       <use xlink:href="#DejaVuSans-32"/>
       <use xlink:href="#DejaVuSans-30" x="63.623047"/>
      </g>
     </g>
    </g>
    <g id="xtick_4">
     <g id="line2d_4">
      <g>
       <use xlink:href="#m17c4f2ba51" x="254.88" y="252" style="stroke: #000000; stroke-width: 4"/>
      </g>
     </g>
     <g id="text_4">
      <!-- 30 -->
      <g transform="translate(245.9725 274.137812)scale(0.14 -0.14)">
       <defs>
        <path id="DejaVuSans-33" d="M 2597 2516 
Q 3050 2419 3304 2112 
Q 3559 1806 3559 1356 
Q 3559 666 3084 287 
Q 2609 -91 1734 -91 
Q 1441 -91 1130 -33 
Q 819 25 488 141 
L 488 750 
Q 750 597 1062 519 
Q 1375 441 1716 441 
Q 2309 441 2620 675 
Q 2931 909 2931 1356 
Q 2931 1769 2642 2001 
Q 2353 2234 1838 2234 
L 1294 2234 
L 1294 2753 
L 1863 2753 
Q 2328 2753 2575 2939 
Q 2822 3125 2822 3475 
Q 2822 3834 2567 4026 
Q 2313 4219 1838 4219 
Q 1578 4219 1281 4162 
Q 984 4106 628 3988 
L 628 4550 
Q 988 4650 1302 4700 
Q 1616 4750 1894 4750 
Q 2613 4750 3031 4423 
Q 3450 4097 3450 3541 
Q 3450 3153 3228 2886 
Q 3006 2619 2597 2516 
z
" transform="scale(0.015625)"/>
       </defs>
       <use xlink:href="#DejaVuSans-33"/>
       <use xlink:href="#DejaVuSans-30" x="63.623047"/>
      </g>
     </g>
    </g>
    <g id="xtick_5">
     <g id="line2d_5">
      <g>
       <use xlink:href="#m17c4f2ba51" x="321.84" y="252" style="stroke: #000000; stroke-width: 4"/>
      </g>
     </g>
     <g id="text_5">
      <!-- 40 -->
      <g transform="translate(312.9325 274.137812)scale(0.14 -0.14)">
       <defs>
        <path id="DejaVuSans-34" d="M 2419 4116 
L 825 1625 
L 2419 1625 
L 2419 4116 
z
M 2253 4666 
L 3047 4666 
L 3047 1625 
L 3713 1625 
L 3713 1100 
L 3047 1100 
L 3047 0 
L 2419 0 
L 2419 1100 
L 313 1100 
L 313 1709 
L 2253 4666 
z
" transform="scale(0.015625)"/>
       </defs>
       <use xlink:href="#DejaVuSans-34"/>
       <use xlink:href="#DejaVuSans-30" x="63.623047"/>
      </g>
     </g>
    </g>
    <g id="xtick_6">
     <g id="line2d_6">
      <g>
       <use xlink:href="#m17c4f2ba51" x="388.8" y="252" style="stroke: #000000; stroke-width: 4"/>
      </g>
     </g>
     <g id="text_6">
      <!-- 50 -->
      <g transform="translate(379.8925 274.137812)scale(0.14 -0.14)">
       <defs>
        <path id="DejaVuSans-35" d="M 691 4666 
L 3169 4666 
L 3169 4134 
L 1269 4134 
L 1269 2991 
Q 1406 3038 1543 3061 
Q 1681 3084 1819 3084 
Q 2600 3084 3056 2656 
Q 3513 2228 3513 1497 
Q 3513 744 3044 326 
Q 2575 -91 1722 -91 
Q 1428 -91 1123 -41 
Q 819 9 494 109 
L 494 744 
Q 775 591 1075 516 
Q 1375 441 1709 441 
Q 2250 441 2565 725 
Q 2881 1009 2881 1497 
Q 2881 1984 2565 2268 
Q 2250 2553 1709 2553 
Q 1456 2553 1204 2497 
Q 953 2441 691 2322 
L 691 4666 
z
" transform="scale(0.015625)"/>
       </defs>
       <use xlink:href="#DejaVuSans-35"/>
       <use xlink:href="#DejaVuSans-30" x="63.623047"/>
      </g>
     </g>
    </g>
    <g id="text_7">
     <!-- Trial -->
     <g transform="translate(205.0575 293.206875)scale(0.16 -0.16)">
      <defs>
       <path id="DejaVuSans-54" d="M -19 4666 
L 3928 4666 
L 3928 4134 
L 2272 4134 
L 2272 0 
L 1638 0 
L 1638 4134 
L -19 4134 
L -19 4666 
z
" transform="scale(0.015625)"/>
       <path id="DejaVuSans-72" d="M 2631 2963 
Q 2534 3019 2420 3045 
Q 2306 3072 2169 3072 
Q 1681 3072 1420 2755 
Q 1159 2438 1159 1844 
L 1159 0 
L 581 0 
L 581 3500 
L 1159 3500 
L 1159 2956 
Q 1341 3275 1631 3429 
Q 1922 3584 2338 3584 
Q 2397 3584 2469 3576 
Q 2541 3569 2628 3553 
L 2631 2963 
z
" transform="scale(0.015625)"/>
       <path id="DejaVuSans-69" d="M 603 3500 
L 1178 3500 
L 1178 0 
L 603 0 
L 603 3500 
z
M 603 4863 
L 1178 4863 
L 1178 4134 
L 603 4134 
L 603 4863 
z
" transform="scale(0.015625)"/>
       <path id="DejaVuSans-61" d="M 2194 1759 
Q 1497 1759 1228 1600 
Q 959 1441 959 1056 
Q 959 750 1161 570 
Q 1363 391 1709 391 
Q 2188 391 2477 730 
Q 2766 1069 2766 1631 
L 2766 1759 
L 2194 1759 
z
M 3341 1997 
L 3341 0 
L 2766 0 
L 2766 531 
Q 2569 213 2275 61 
Q 1981 -91 1556 -91 
Q 1019 -91 701 211 
Q 384 513 384 1019 
Q 384 1609 779 1909 
Q 1175 2209 1959 2209 
L 2766 2209 
L 2766 2266 
Q 2766 2663 2505 2880 
Q 2244 3097 1772 3097 
Q 1472 3097 1187 3025 
Q 903 2953 641 2809 
L 641 3341 
Q 956 3463 1253 3523 
Q 1550 3584 1831 3584 
Q 2591 3584 2966 3190 
Q 3341 2797 3341 1997 
z
" transform="scale(0.015625)"/>
       <path id="DejaVuSans-6c" d="M 603 4863 
L 1178 4863 
L 1178 0 
L 603 0 
L 603 4863 
z
" transform="scale(0.015625)"/>
      </defs>
      <use xlink:href="#DejaVuSans-54"/>
      <use xlink:href="#DejaVuSans-72" x="46.333984"/>
      <use xlink:href="#DejaVuSans-69" x="87.447266"/>
      <use xlink:href="#DejaVuSans-61" x="115.230469"/>
      <use xlink:href="#DejaVuSans-6c" x="176.509766"/>
     </g>
    </g>
   </g>
   <g id="matplotlib.axis_2">
    <g id="ytick_1">
     <g id="line2d_7">
      <defs>
       <path id="m993425e9d0" d="M 0 0 
L -8 0 
" style="stroke: #000000; stroke-width: 4"/>
      </defs>
      <g>
       <use xlink:href="#m993425e9d0" x="54" y="244.985806" style="stroke: #000000; stroke-width: 4"/>
      </g>
     </g>
     <g id="text_8">
      <!-- 0.00 -->
      <g transform="translate(11.328125 250.304713)scale(0.14 -0.14)">
       <defs>
        <path id="DejaVuSans-2e" d="M 684 794 
L 1344 794 
L 1344 0 
L 684 0 
L 684 794 
z
" transform="scale(0.015625)"/>
       </defs>
       <use xlink:href="#DejaVuSans-30"/>
       <use xlink:href="#DejaVuSans-2e" x="63.623047"/>
       <use xlink:href="#DejaVuSans-30" x="95.410156"/>
       <use xlink:href="#DejaVuSans-30" x="159.033203"/>
      </g>
     </g>
    </g>
    <g id="ytick_2">
     <g id="line2d_8">
      <g>
       <use xlink:href="#m993425e9d0" x="54" y="209.914839" style="stroke: #000000; stroke-width: 4"/>
      </g>
     </g>
     <g id="text_9">
      <!-- 0.05 -->
      <g transform="translate(11.328125 215.233745)scale(0.14 -0.14)">
       <use xlink:href="#DejaVuSans-30"/>
       <use xlink:href="#DejaVuSans-2e" x="63.623047"/>
       <use xlink:href="#DejaVuSans-30" x="95.410156"/>
       <use xlink:href="#DejaVuSans-35" x="159.033203"/>
      </g>
     </g>
    </g>
    <g id="ytick_3">
     <g id="line2d_9">
      <g>
       <use xlink:href="#m993425e9d0" x="54" y="174.843871" style="stroke: #000000; stroke-width: 4"/>
      </g>
     </g>
     <g id="text_10">
      <!-- 0.10 -->
      <g transform="translate(11.328125 180.162777)scale(0.14 -0.14)">
       <use xlink:href="#DejaVuSans-30"/>
       <use xlink:href="#DejaVuSans-2e" x="63.623047"/>
       <use xlink:href="#DejaVuSans-31" x="95.410156"/>
       <use xlink:href="#DejaVuSans-30" x="159.033203"/>
      </g>
     </g>
    </g>
    <g id="ytick_4">
     <g id="line2d_10">
      <g>
       <use xlink:href="#m993425e9d0" x="54" y="139.772903" style="stroke: #000000; stroke-width: 4"/>
      </g>
     </g>
     <g id="text_11">
      <!-- 0.15 -->
      <g transform="translate(11.328125 145.091809)scale(0.14 -0.14)">
       <use xlink:href="#DejaVuSans-30"/>
       <use xlink:href="#DejaVuSans-2e" x="63.623047"/>
       <use xlink:href="#DejaVuSans-31" x="95.410156"/>
       <use xlink:href="#DejaVuSans-35" x="159.033203"/>
      </g>
     </g>
    </g>
    <g id="ytick_5">
     <g id="line2d_11">
      <g>
       <use xlink:href="#m993425e9d0" x="54" y="104.701935" style="stroke: #000000; stroke-width: 4"/>
      </g>
     </g>
     <g id="text_12">
      <!-- 0.20 -->
      <g transform="translate(11.328125 110.020842)scale(0.14 -0.14)">
       <use xlink:href="#DejaVuSans-30"/>
       <use xlink:href="#DejaVuSans-2e" x="63.623047"/>
       <use xlink:href="#DejaVuSans-32" x="95.410156"/>
       <use xlink:href="#DejaVuSans-30" x="159.033203"/>
      </g>
     </g>
    </g>
    <g id="ytick_6">
     <g id="line2d_12">
      <g>
       <use xlink:href="#m993425e9d0" x="54" y="69.630968" style="stroke: #000000; stroke-width: 4"/>
      </g>
     </g>
     <g id="text_13">
      <!-- 0.25 -->
      <g transform="translate(11.328125 74.949874)scale(0.14 -0.14)">
       <use xlink:href="#DejaVuSans-30"/>
       <use xlink:href="#DejaVuSans-2e" x="63.623047"/>
       <use xlink:href="#DejaVuSans-32" x="95.410156"/>
       <use xlink:href="#DejaVuSans-35" x="159.033203"/>
      </g>
     </g>
    </g>
    <g id="ytick_7">
     <g id="line2d_13">
      <g>
       <use xlink:href="#m993425e9d0" x="54" y="34.56" style="stroke: #000000; stroke-width: 4"/>
      </g>
     </g>
     <g id="text_14">
      <!-- 0.30 -->
      <g transform="translate(11.328125 39.878906)scale(0.14 -0.14)">
       <use xlink:href="#DejaVuSans-30"/>
       <use xlink:href="#DejaVuSans-2e" x="63.623047"/>
       <use xlink:href="#DejaVuSans-33" x="95.410156"/>
       <use xlink:href="#DejaVuSans-30" x="159.033203"/>
      </g>
     </g>
    </g>
    <g id="text_15">
     <!-- Proportion of Observes -->
     <g transform="translate(4.000625 234.93)rotate(-90)scale(0.16 -0.16)">
      <defs>
       <path id="DejaVuSans-50" d="M 1259 4147 
L 1259 2394 
L 2053 2394 
Q 2494 2394 2734 2622 
Q 2975 2850 2975 3272 
Q 2975 3691 2734 3919 
Q 2494 4147 2053 4147 
L 1259 4147 
z
M 628 4666 
L 2053 4666 
Q 2838 4666 3239 4311 
Q 3641 3956 3641 3272 
Q 3641 2581 3239 2228 
Q 2838 1875 2053 1875 
L 1259 1875 
L 1259 0 
L 628 0 
L 628 4666 
z
" transform="scale(0.015625)"/>
       <path id="DejaVuSans-6f" d="M 1959 3097 
Q 1497 3097 1228 2736 
Q 959 2375 959 1747 
Q 959 1119 1226 758 
Q 1494 397 1959 397 
Q 2419 397 2687 759 
Q 2956 1122 2956 1747 
Q 2956 2369 2687 2733 
Q 2419 3097 1959 3097 
z
M 1959 3584 
Q 2709 3584 3137 3096 
Q 3566 2609 3566 1747 
Q 3566 888 3137 398 
Q 2709 -91 1959 -91 
Q 1206 -91 779 398 
Q 353 888 353 1747 
Q 353 2609 779 3096 
Q 1206 3584 1959 3584 
z
" transform="scale(0.015625)"/>
       <path id="DejaVuSans-70" d="M 1159 525 
L 1159 -1331 
L 581 -1331 
L 581 3500 
L 1159 3500 
L 1159 2969 
Q 1341 3281 1617 3432 
Q 1894 3584 2278 3584 
Q 2916 3584 3314 3078 
Q 3713 2572 3713 1747 
Q 3713 922 3314 415 
Q 2916 -91 2278 -91 
Q 1894 -91 1617 61 
Q 1341 213 1159 525 
z
M 3116 1747 
Q 3116 2381 2855 2742 
Q 2594 3103 2138 3103 
Q 1681 3103 1420 2742 
Q 1159 2381 1159 1747 
Q 1159 1113 1420 752 
Q 1681 391 2138 391 
Q 2594 391 2855 752 
Q 3116 1113 3116 1747 
z
" transform="scale(0.015625)"/>
       <path id="DejaVuSans-74" d="M 1172 4494 
L 1172 3500 
L 2356 3500 
L 2356 3053 
L 1172 3053 
L 1172 1153 
Q 1172 725 1289 603 
Q 1406 481 1766 481 
L 2356 481 
L 2356 0 
L 1766 0 
Q 1100 0 847 248 
Q 594 497 594 1153 
L 594 3053 
L 172 3053 
L 172 3500 
L 594 3500 
L 594 4494 
L 1172 4494 
z
" transform="scale(0.015625)"/>
       <path id="DejaVuSans-6e" d="M 3513 2113 
L 3513 0 
L 2938 0 
L 2938 2094 
Q 2938 2591 2744 2837 
Q 2550 3084 2163 3084 
Q 1697 3084 1428 2787 
Q 1159 2491 1159 1978 
L 1159 0 
L 581 0 
L 581 3500 
L 1159 3500 
L 1159 2956 
Q 1366 3272 1645 3428 
Q 1925 3584 2291 3584 
Q 2894 3584 3203 3211 
Q 3513 2838 3513 2113 
z
" transform="scale(0.015625)"/>
       <path id="DejaVuSans-20" transform="scale(0.015625)"/>
       <path id="DejaVuSans-66" d="M 2375 4863 
L 2375 4384 
L 1825 4384 
Q 1516 4384 1395 4259 
Q 1275 4134 1275 3809 
L 1275 3500 
L 2222 3500 
L 2222 3053 
L 1275 3053 
L 1275 0 
L 697 0 
L 697 3053 
L 147 3053 
L 147 3500 
L 697 3500 
L 697 3744 
Q 697 4328 969 4595 
Q 1241 4863 1831 4863 
L 2375 4863 
z
" transform="scale(0.015625)"/>
       <path id="DejaVuSans-4f" d="M 2522 4238 
Q 1834 4238 1429 3725 
Q 1025 3213 1025 2328 
Q 1025 1447 1429 934 
Q 1834 422 2522 422 
Q 3209 422 3611 934 
Q 4013 1447 4013 2328 
Q 4013 3213 3611 3725 
Q 3209 4238 2522 4238 
z
M 2522 4750 
Q 3503 4750 4090 4092 
Q 4678 3434 4678 2328 
Q 4678 1225 4090 567 
Q 3503 -91 2522 -91 
Q 1538 -91 948 565 
Q 359 1222 359 2328 
Q 359 3434 948 4092 
Q 1538 4750 2522 4750 
z
" transform="scale(0.015625)"/>
       <path id="DejaVuSans-62" d="M 3116 1747 
Q 3116 2381 2855 2742 
Q 2594 3103 2138 3103 
Q 1681 3103 1420 2742 
Q 1159 2381 1159 1747 
Q 1159 1113 1420 752 
Q 1681 391 2138 391 
Q 2594 391 2855 752 
Q 3116 1113 3116 1747 
z
M 1159 2969 
Q 1341 3281 1617 3432 
Q 1894 3584 2278 3584 
Q 2916 3584 3314 3078 
Q 3713 2572 3713 1747 
Q 3713 922 3314 415 
Q 2916 -91 2278 -91 
Q 1894 -91 1617 61 
Q 1341 213 1159 525 
L 1159 0 
L 581 0 
L 581 4863 
L 1159 4863 
L 1159 2969 
z
" transform="scale(0.015625)"/>
       <path id="DejaVuSans-73" d="M 2834 3397 
L 2834 2853 
Q 2591 2978 2328 3040 
Q 2066 3103 1784 3103 
Q 1356 3103 1142 2972 
Q 928 2841 928 2578 
Q 928 2378 1081 2264 
Q 1234 2150 1697 2047 
L 1894 2003 
Q 2506 1872 2764 1633 
Q 3022 1394 3022 966 
Q 3022 478 2636 193 
Q 2250 -91 1575 -91 
Q 1294 -91 989 -36 
Q 684 19 347 128 
L 347 722 
Q 666 556 975 473 
Q 1284 391 1588 391 
Q 1994 391 2212 530 
Q 2431 669 2431 922 
Q 2431 1156 2273 1281 
Q 2116 1406 1581 1522 
L 1381 1569 
Q 847 1681 609 1914 
Q 372 2147 372 2553 
Q 372 3047 722 3315 
Q 1072 3584 1716 3584 
Q 2034 3584 2315 3537 
Q 2597 3491 2834 3397 
z
" transform="scale(0.015625)"/>
       <path id="DejaVuSans-65" d="M 3597 1894 
L 3597 1613 
L 953 1613 
Q 991 1019 1311 708 
Q 1631 397 2203 397 
Q 2534 397 2845 478 
Q 3156 559 3463 722 
L 3463 178 
Q 3153 47 2828 -22 
Q 2503 -91 2169 -91 
Q 1331 -91 842 396 
Q 353 884 353 1716 
Q 353 2575 817 3079 
Q 1281 3584 2069 3584 
Q 2775 3584 3186 3129 
Q 3597 2675 3597 1894 
z
M 3022 2063 
Q 3016 2534 2758 2815 
Q 2500 3097 2075 3097 
Q 1594 3097 1305 2825 
Q 1016 2553 972 2059 
L 3022 2063 
z
" transform="scale(0.015625)"/>
       <path id="DejaVuSans-76" d="M 191 3500 
L 800 3500 
L 1894 563 
L 2988 3500 
L 3597 3500 
L 2284 0 
L 1503 0 
L 191 3500 
z
" transform="scale(0.015625)"/>
      </defs>
      <use xlink:href="#DejaVuSans-50"/>
      <use xlink:href="#DejaVuSans-72" x="58.552734"/>
      <use xlink:href="#DejaVuSans-6f" x="97.416016"/>
      <use xlink:href="#DejaVuSans-70" x="158.597656"/>
      <use xlink:href="#DejaVuSans-6f" x="222.074219"/>
      <use xlink:href="#DejaVuSans-72" x="283.255859"/>
      <use xlink:href="#DejaVuSans-74" x="324.369141"/>
      <use xlink:href="#DejaVuSans-69" x="363.578125"/>
      <use xlink:href="#DejaVuSans-6f" x="391.361328"/>
      <use xlink:href="#DejaVuSans-6e" x="452.542969"/>
      <use xlink:href="#DejaVuSans-20" x="515.921875"/>
      <use xlink:href="#DejaVuSans-6f" x="547.708984"/>
      <use xlink:href="#DejaVuSans-66" x="608.890625"/>
      <use xlink:href="#DejaVuSans-20" x="644.095703"/>
      <use xlink:href="#DejaVuSans-4f" x="675.882812"/>
      <use xlink:href="#DejaVuSans-62" x="754.59375"/>
      <use xlink:href="#DejaVuSans-73" x="818.070312"/>
      <use xlink:href="#DejaVuSans-65" x="870.169922"/>
      <use xlink:href="#DejaVuSans-72" x="931.693359"/>
      <use xlink:href="#DejaVuSans-76" x="972.806641"/>
      <use xlink:href="#DejaVuSans-65" x="1031.986328"/>
      <use xlink:href="#DejaVuSans-73" x="1093.509766"/>
     </g>
    </g>
   </g>
   <g id="line2d_14">
    <path d="M 60.696 151.398014 
L 67.392 179.935964 
L 74.088 191.594974 
L 80.784 184.834978 
L 87.48 144.555487 
L 94.176 143.144148 
L 100.872 156.118558 
L 107.568 166.446253 
L 114.264 176.931757 
L 120.96 172.80409 
L 127.656 168.070304 
L 134.352 162.641636 
L 141.048 185.777542 
L 147.744 195.015645 
L 154.44 189.846996 
L 161.136 181.630303 
L 167.832 176.709488 
L 174.528 176.380224 
L 181.224 173.855123 
L 187.92 178.134583 
L 194.616 177.259841 
L 201.312 175.660003 
L 208.008 179.096176 
L 214.704 182.958267 
L 221.4 183.209061 
L 228.096 181.449173 
L 234.792 182.815966 
L 241.488 183.424484 
L 248.184 184.66587 
L 254.88 183.786484 
L 261.576 180.679669 
L 268.272 179.849301 
L 274.968 177.935023 
L 281.664 179.474454 
L 288.36 180.130537 
L 295.056 183.078154 
L 301.752 184.722152 
L 308.448 185.904106 
L 315.144 185.571465 
L 321.84 184.503979 
L 328.536 185.59515 
L 335.232 186.174789 
L 341.928 186.58299 
L 348.624 185.626978 
L 355.32 184.590635 
L 362.016 183.533668 
L 368.712 182.584251 
L 375.408 181.893891 
L 382.104 181.657832 
L 388.8 182.458571 
" clip-path="url(#pb25c96afbd)" style="fill: none; stroke: #7f2704; stroke-width: 2.5; stroke-linecap: square"/>
   </g>
   <g id="line2d_15">
    <path d="M 60.696 149.422961 
L 67.392 179.248132 
L 74.088 190.180335 
L 80.784 183.313256 
L 87.48 144.317081 
L 94.176 143.255752 
L 100.872 155.672775 
L 107.568 165.898359 
L 114.264 176.453277 
L 120.96 171.725005 
L 127.656 167.721933 
L 134.352 162.30881 
L 141.048 186.063823 
L 147.744 195.09491 
L 154.44 190.771557 
L 161.136 184.467929 
L 167.832 180.133624 
L 174.528 180.822377 
L 181.224 176.041786 
L 187.92 178.357526 
L 194.616 176.379147 
L 201.312 174.39526 
L 208.008 176.715969 
L 214.704 179.226051 
L 221.4 178.934357 
L 228.096 177.509132 
L 234.792 179.92896 
L 241.488 182.196266 
L 248.184 184.245038 
L 254.88 184.987531 
L 261.576 182.674053 
L 268.272 181.212747 
L 274.968 178.214147 
L 281.664 178.950194 
L 288.36 180.559056 
L 295.056 182.687852 
L 301.752 183.384011 
L 308.448 183.200049 
L 315.144 183.069708 
L 321.84 181.048835 
L 328.536 182.489707 
L 335.232 184.646828 
L 341.928 186.194308 
L 348.624 186.675148 
L 355.32 186.118613 
L 362.016 184.635868 
L 368.712 183.192688 
L 375.408 183.958311 
L 382.104 184.968955 
L 388.8 185.119658 
" clip-path="url(#pb25c96afbd)" style="fill: none; stroke: #e95e0d; stroke-width: 2.5; stroke-linecap: square"/>
   </g>
   <g id="line2d_16">
    <path d="M 60.696 147.828976 
L 67.392 178.342582 
L 74.088 190.052279 
L 80.784 184.981672 
L 87.48 143.666802 
L 94.176 143.745604 
L 100.872 155.989015 
L 107.568 166.237683 
L 114.264 177.115423 
L 120.96 171.940175 
L 127.656 167.731873 
L 134.352 163.191881 
L 141.048 186.996297 
L 147.744 194.923844 
L 154.44 191.042435 
L 161.136 184.875966 
L 167.832 180.464484 
L 174.528 182.771918 
L 181.224 178.251352 
L 187.92 180.004473 
L 194.616 178.592704 
L 201.312 176.207799 
L 208.008 178.298511 
L 214.704 182.092752 
L 221.4 182.450927 
L 228.096 180.432627 
L 234.792 183.928042 
L 241.488 184.890332 
L 248.184 187.036685 
L 254.88 187.099212 
L 261.576 185.042637 
L 268.272 182.831944 
L 274.968 179.297308 
L 281.664 179.725315 
L 288.36 180.337934 
L 295.056 182.730954 
L 301.752 183.982443 
L 308.448 184.555694 
L 315.144 183.673372 
L 321.84 180.560896 
L 328.536 182.465662 
L 335.232 184.005886 
L 341.928 185.265245 
L 348.624 186.876082 
L 355.32 186.97629 
L 362.016 186.337454 
L 368.712 186.036784 
L 375.408 187.787829 
L 382.104 186.635183 
L 388.8 185.46224 
" clip-path="url(#pb25c96afbd)" style="fill: none; stroke: #fdb97d; stroke-width: 2.5; stroke-linecap: square"/>
   </g>
   <g id="patch_3">
    <path d="M 54 252 
L 54 34.56 
" style="fill: none; stroke: #000000; stroke-width: 4; stroke-linejoin: miter; stroke-linecap: square"/>
   </g>
   <g id="patch_4">
    <path d="M 54 252 
L 388.8 252 
" style="fill: none; stroke: #000000; stroke-width: 4; stroke-linejoin: miter; stroke-linecap: square"/>
   </g>
   <g id="legend_1">
    <g id="patch_5">
     <path d="M 305.86 95.39 
L 381.8 95.39 
Q 383.8 95.39 383.8 93.39 
L 383.8 41.56 
Q 383.8 39.56 381.8 39.56 
L 305.86 39.56 
Q 303.86 39.56 303.86 41.56 
L 303.86 93.39 
Q 303.86 95.39 305.86 95.39 
z
" style="fill: #ffffff; opacity: 0.8; stroke: #cccccc; stroke-linejoin: miter"/>
    </g>
    <g id="line2d_17">
     <path d="M 307.86 49.94 
L 317.86 49.94 
L 327.86 49.94 
" style="fill: none; stroke: #7f2704; stroke-width: 4; stroke-linecap: square"/>
    </g>
    <g id="text_16">
     <!-- $\xi=$1 -->
     <g transform="translate(335.86 53.44)scale(0.13 -0.13)">
      <defs>
       <path id="DejaVuSans-Oblique-3be" d="M 2016 397 
Q 2428 394 2628 159 
Q 2844 -88 2772 -463 
Q 2700 -822 2422 -1072 
Q 2119 -1344 1609 -1344 
Q 1656 -1109 1700 -872 
Q 1913 -888 2072 -750 
Q 2194 -641 2216 -525 
Q 2247 -359 2175 -222 
Q 2100 -91 1922 -91 
Q -25 -91 241 1275 
Q 422 2213 1516 2488 
Q 663 2600 822 3413 
Q 941 4028 1678 4284 
L 1028 4284 
L 1141 4863 
L 3606 4863 
L 3494 4284 
Q 1528 4284 1350 3375 
Q 1234 2778 2881 2750 
L 2778 2219 
Q 1009 2288 819 1275 
Q 659 428 2016 397 
z
" transform="scale(0.015625)"/>
       <path id="DejaVuSans-3d" d="M 678 2906 
L 4684 2906 
L 4684 2381 
L 678 2381 
L 678 2906 
z
M 678 1631 
L 4684 1631 
L 4684 1100 
L 678 1100 
L 678 1631 
z
" transform="scale(0.015625)"/>
      </defs>
      <use xlink:href="#DejaVuSans-Oblique-3be" transform="translate(0 0.015625)"/>
      <use xlink:href="#DejaVuSans-3d" transform="translate(75.244141 0.015625)"/>
      <use xlink:href="#DejaVuSans-31" transform="translate(178.515625 0.015625)"/>
     </g>
    </g>
    <g id="line2d_18">
     <path d="M 307.86 67.55 
L 317.86 67.55 
L 327.86 67.55 
" style="fill: none; stroke: #e95e0d; stroke-width: 4; stroke-linecap: square"/>
    </g>
    <g id="text_17">
     <!-- $\xi=$0.5 -->
     <g transform="translate(335.86 71.05)scale(0.13 -0.13)">
      <use xlink:href="#DejaVuSans-Oblique-3be" transform="translate(0 0.015625)"/>
      <use xlink:href="#DejaVuSans-3d" transform="translate(75.244141 0.015625)"/>
      <use xlink:href="#DejaVuSans-30" transform="translate(178.515625 0.015625)"/>
      <use xlink:href="#DejaVuSans-2e" transform="translate(242.138672 0.015625)"/>
      <use xlink:href="#DejaVuSans-35" transform="translate(273.925781 0.015625)"/>
     </g>
    </g>
    <g id="line2d_19">
     <path d="M 307.86 85.16 
L 317.86 85.16 
L 327.86 85.16 
" style="fill: none; stroke: #fdb97d; stroke-width: 4; stroke-linecap: square"/>
    </g>
    <g id="text_18">
     <!-- $\xi=$0 -->
     <g transform="translate(335.86 88.66)scale(0.13 -0.13)">
      <use xlink:href="#DejaVuSans-Oblique-3be" transform="translate(0 0.015625)"/>
      <use xlink:href="#DejaVuSans-3d" transform="translate(75.244141 0.015625)"/>
      <use xlink:href="#DejaVuSans-30" transform="translate(178.515625 0.015625)"/>
     </g>
    </g>
   </g>
  </g>
 </g>
 <defs>
  <clipPath id="pb25c96afbd">
   <rect x="54" y="34.56" width="334.8" height="217.44"/>
  </clipPath>
 </defs>
</svg>
