<?xml version="1.0" encoding="utf-8" standalone="no"?>
<!DOCTYPE svg PUBLIC "-//W3C//DTD SVG 1.1//EN"
  "http://www.w3.org/Graphics/SVG/1.1/DTD/svg11.dtd">
<svg xmlns:xlink="http://www.w3.org/1999/xlink" width="432pt" height="288pt" viewBox="0 0 432 288" xmlns="http://www.w3.org/2000/svg" version="1.1">
 <metadata>
  <rdf:RDF xmlns:dc="http://purl.org/dc/elements/1.1/" xmlns:cc="http://creativecommons.org/ns#" xmlns:rdf="http://www.w3.org/1999/02/22-rdf-syntax-ns#">
   <cc:Work>
    <dc:type rdf:resource="http://purl.org/dc/dcmitype/StillImage"/>
    <dc:date>2025-03-24T23:11:15.309427</dc:date>
    <dc:format>image/svg+xml</dc:format>
    <dc:creator>
     <cc:Agent>
      <dc:title>Matplotlib v3.5.2, https://matplotlib.org/</dc:title>
     </cc:Agent>
    </dc:creator>
   </cc:Work>
  </rdf:RDF>
 </metadata>
 <defs>
  <style type="text/css">*{stroke-linejoin: round; stroke-linecap: butt}</style>
 </defs>
 <g id="figure_1">
  <g id="patch_1">
   <path d="M 0 288 
L 432 288 
L 432 0 
L 0 0 
L 0 288 
z
" style="fill: none"/>
  </g>
  <g id="axes_1">
   <g id="patch_2">
    <path d="M 64.2125 232.36 
L 412.3125 232.36 
L 412.3125 16.2 
L 64.2125 16.2 
z
" style="fill: #ffffff"/>
   </g>
   <g id="PolyCollection_1">
    <defs>
     <path id="m0a35ccf5bf" d="M 71.1745 -164.400041 
L 71.1745 -162.123618 
L 78.1365 -168.546554 
L 85.0985 -183.090253 
L 92.0605 -195.304679 
L 99.0225 -201.124697 
L 105.9845 -202.41833 
L 112.9465 -202.787602 
L 119.9085 -202.214216 
L 126.8705 -206.848859 
L 133.8325 -210.228461 
L 140.7945 -209.394456 
L 147.7565 -206.926064 
L 154.7185 -205.43657 
L 161.6805 -205.588817 
L 168.6425 -206.007035 
L 175.6045 -207.411674 
L 182.5665 -208.777553 
L 189.5285 -209.89244 
L 196.4905 -210.876325 
L 203.4525 -211.446091 
L 210.4145 -212.056288 
L 217.3765 -212.929761 
L 224.3385 -213.731513 
L 231.3005 -214.483759 
L 238.2625 -215.282675 
L 245.2245 -215.955553 
L 252.1865 -216.320614 
L 259.1485 -216.359288 
L 266.1105 -216.515312 
L 273.0725 -216.719934 
L 280.0345 -217.167003 
L 286.9965 -217.34149 
L 293.9585 -217.259039 
L 300.9205 -217.050749 
L 307.8825 -216.924972 
L 314.8445 -216.925394 
L 321.8065 -216.836677 
L 328.7685 -216.817371 
L 335.7305 -216.637579 
L 342.6925 -216.52508 
L 349.6545 -216.332011 
L 356.6165 -216.156552 
L 363.5785 -215.980867 
L 370.5405 -215.902541 
L 377.5025 -215.748107 
L 384.4645 -215.414552 
L 391.4265 -215.23021 
L 398.3885 -215.228546 
L 405.3505 -215.401905 
L 412.3125 -215.488223 
L 412.3125 -228.207712 
L 412.3125 -228.207712 
L 405.3505 -228.661175 
L 398.3885 -228.770282 
L 391.4265 -228.871694 
L 384.4645 -229.147263 
L 377.5025 -229.206616 
L 370.5405 -229.542961 
L 363.5785 -229.860944 
L 356.6165 -230.137363 
L 349.6545 -230.232918 
L 342.6925 -230.501638 
L 335.7305 -230.866606 
L 328.7685 -231.022795 
L 321.8065 -231.17138 
L 314.8445 -231.022859 
L 307.8825 -230.939775 
L 300.9205 -231.094202 
L 293.9585 -231.385693 
L 286.9965 -231.422633 
L 280.0345 -230.929708 
L 273.0725 -230.595563 
L 266.1105 -230.389657 
L 259.1485 -230.504742 
L 252.1865 -230.459112 
L 245.2245 -230.121491 
L 238.2625 -229.668982 
L 231.3005 -229.280894 
L 224.3385 -228.884225 
L 217.3765 -228.468716 
L 210.4145 -228.553085 
L 203.4525 -228.633347 
L 196.4905 -228.60849 
L 189.5285 -228.083641 
L 182.5665 -226.607117 
L 175.6045 -224.304146 
L 168.6425 -221.871703 
L 161.6805 -220.145254 
L 154.7185 -219.553468 
L 147.7565 -220.437046 
L 140.7945 -222.480636 
L 133.8325 -224.158326 
L 126.8705 -224.315855 
L 119.9085 -218.656272 
L 112.9465 -220.359106 
L 105.9845 -221.589471 
L 99.0225 -220.786322 
L 92.0605 -216.348006 
L 85.0985 -206.567374 
L 78.1365 -191.074947 
L 71.1745 -164.400041 
z
" style="stroke: #08306b; stroke-opacity: 0.2"/>
    </defs>
    <g clip-path="url(#p42af09115c)">
     <use xlink:href="#m0a35ccf5bf" x="0" y="288" style="fill: #08306b; fill-opacity: 0.2; stroke: #08306b; stroke-opacity: 0.2"/>
    </g>
   </g>
   <g id="PolyCollection_2">
    <defs>
     <path id="m511b1792b3" d="M 71.1745 -165.496168 
L 71.1745 -162.647036 
L 78.1365 -168.930633 
L 85.0985 -181.324597 
L 92.0605 -192.114754 
L 99.0225 -197.381152 
L 105.9845 -198.726418 
L 112.9465 -199.554833 
L 119.9085 -199.170931 
L 126.8705 -202.706534 
L 133.8325 -204.579088 
L 140.7945 -202.759132 
L 147.7565 -199.069098 
L 154.7185 -196.387027 
L 161.6805 -195.430088 
L 168.6425 -194.551124 
L 175.6045 -194.481372 
L 182.5665 -195.023986 
L 189.5285 -195.8294 
L 196.4905 -196.132914 
L 203.4525 -195.917775 
L 210.4145 -195.577885 
L 217.3765 -195.272574 
L 224.3385 -195.084542 
L 231.3005 -194.888412 
L 238.2625 -194.834195 
L 245.2245 -194.572703 
L 252.1865 -194.21087 
L 259.1485 -193.858965 
L 266.1105 -193.514337 
L 273.0725 -192.784159 
L 280.0345 -192.003705 
L 286.9965 -191.439523 
L 293.9585 -190.642306 
L 300.9205 -190.060612 
L 307.8825 -189.927967 
L 314.8445 -189.800775 
L 321.8065 -189.447718 
L 328.7685 -189.294436 
L 335.7305 -189.216218 
L 342.6925 -189.28634 
L 349.6545 -189.557368 
L 356.6165 -189.621309 
L 363.5785 -189.419651 
L 370.5405 -189.477895 
L 377.5025 -189.647595 
L 384.4645 -190.039756 
L 391.4265 -190.389787 
L 398.3885 -190.453931 
L 405.3505 -190.073588 
L 412.3125 -189.708833 
L 412.3125 -202.442297 
L 412.3125 -202.442297 
L 405.3505 -202.937156 
L 398.3885 -203.325145 
L 391.4265 -203.44394 
L 384.4645 -203.348108 
L 377.5025 -203.168078 
L 370.5405 -203.402678 
L 363.5785 -203.779541 
L 356.6165 -204.068191 
L 349.6545 -203.801813 
L 342.6925 -203.679144 
L 335.7305 -203.971908 
L 328.7685 -204.240351 
L 321.8065 -204.758464 
L 314.8445 -205.078102 
L 307.8825 -205.110256 
L 300.9205 -205.201993 
L 293.9585 -205.772901 
L 286.9965 -206.305982 
L 280.0345 -206.544884 
L 273.0725 -206.790926 
L 266.1105 -206.807599 
L 259.1485 -206.837957 
L 252.1865 -206.852354 
L 245.2245 -206.909764 
L 238.2625 -207.105693 
L 231.3005 -207.2725 
L 224.3385 -207.510413 
L 217.3765 -207.825356 
L 210.4145 -208.326902 
L 203.4525 -208.579282 
L 196.4905 -208.796093 
L 189.5285 -208.695788 
L 182.5665 -207.861755 
L 175.6045 -207.011522 
L 168.6425 -206.513354 
L 161.6805 -206.789543 
L 154.7185 -208.371896 
L 147.7565 -211.119952 
L 140.7945 -214.828698 
L 133.8325 -218.261357 
L 126.8705 -220.165399 
L 119.9085 -215.584288 
L 112.9465 -217.015033 
L 105.9845 -217.779822 
L 99.0225 -216.679799 
L 92.0605 -213.236721 
L 85.0985 -205.246175 
L 78.1365 -191.542091 
L 71.1745 -165.496168 
z
" style="stroke: #3787c0; stroke-opacity: 0.2"/>
    </defs>
    <g clip-path="url(#p42af09115c)">
     <use xlink:href="#m511b1792b3" x="0" y="288" style="fill: #3787c0; fill-opacity: 0.2; stroke: #3787c0; stroke-opacity: 0.2"/>
    </g>
   </g>
   <g id="PolyCollection_3">
    <defs>
     <path id="me2b333a99a" d="M 71.1745 -165.437924 
L 71.1745 -163.300814 
L 78.1365 -168.367538 
L 85.0985 -179.30271 
L 92.0605 -187.719537 
L 99.0225 -192.584536 
L 105.9845 -194.101593 
L 112.9465 -194.420382 
L 119.9085 -193.896908 
L 126.8705 -196.510958 
L 133.8325 -197.549768 
L 140.7945 -194.957692 
L 147.7565 -190.395961 
L 154.7185 -185.556063 
L 161.6805 -181.864396 
L 168.6425 -178.827476 
L 175.6045 -176.536096 
L 182.5665 -174.87225 
L 189.5285 -173.460355 
L 196.4905 -172.254816 
L 203.4525 -171.510603 
L 210.4145 -170.800324 
L 217.3765 -170.109607 
L 224.3385 -169.455284 
L 231.3005 -168.650862 
L 238.2625 -167.85872 
L 245.2245 -167.084789 
L 252.1865 -166.41649 
L 259.1485 -165.98089 
L 266.1105 -165.7491 
L 273.0725 -165.52511 
L 280.0345 -165.198843 
L 286.9965 -165.056713 
L 293.9585 -164.978688 
L 300.9205 -165.009409 
L 307.8825 -164.944359 
L 314.8445 -164.609951 
L 321.8065 -164.331012 
L 328.7685 -164.145596 
L 335.7305 -164.162404 
L 342.6925 -164.12174 
L 349.6545 -164.038389 
L 356.6165 -163.888856 
L 363.5785 -163.559411 
L 370.5405 -163.229041 
L 377.5025 -163.028274 
L 384.4645 -162.644992 
L 391.4265 -162.117286 
L 398.3885 -161.528453 
L 405.3505 -161.14539 
L 412.3125 -161.014198 
L 412.3125 -166.609241 
L 412.3125 -166.609241 
L 405.3505 -166.58025 
L 398.3885 -166.732166 
L 391.4265 -167.045915 
L 384.4645 -167.202246 
L 377.5025 -167.228896 
L 370.5405 -167.476101 
L 363.5785 -167.566493 
L 356.6165 -167.726231 
L 349.6545 -167.896004 
L 342.6925 -168.095004 
L 335.7305 -168.118797 
L 328.7685 -168.454106 
L 321.8065 -168.91241 
L 314.8445 -169.254879 
L 307.8825 -169.704051 
L 300.9205 -170.125382 
L 293.9585 -170.427835 
L 286.9965 -170.867194 
L 280.0345 -171.386455 
L 273.0725 -171.697453 
L 266.1105 -172.2908 
L 259.1485 -172.863087 
L 252.1865 -173.623654 
L 245.2245 -174.510792 
L 238.2625 -175.49101 
L 231.3005 -176.614934 
L 224.3385 -177.583786 
L 217.3765 -178.602614 
L 210.4145 -179.635286 
L 203.4525 -180.762264 
L 196.4905 -181.940096 
L 189.5285 -183.423982 
L 182.5665 -185.129749 
L 175.6045 -187.006479 
L 168.6425 -189.739319 
L 161.6805 -193.218091 
L 154.7185 -197.512421 
L 147.7565 -202.795409 
L 140.7945 -207.946946 
L 133.8325 -212.596151 
L 126.8705 -215.492288 
L 119.9085 -211.654022 
L 112.9465 -212.996221 
L 105.9845 -213.671822 
L 99.0225 -212.909142 
L 92.0605 -209.411626 
L 85.0985 -202.980674 
L 78.1365 -190.545691 
L 71.1745 -165.437924 
z
" style="stroke: #abd0e6; stroke-opacity: 0.2"/>
    </defs>
    <g clip-path="url(#p42af09115c)">
     <use xlink:href="#me2b333a99a" x="0" y="288" style="fill: #abd0e6; fill-opacity: 0.2; stroke: #abd0e6; stroke-opacity: 0.2"/>
    </g>
   </g>
   <g id="matplotlib.axis_1">
    <g id="xtick_1">
     <g id="line2d_1">
      <defs>
       <path id="m734bc65f35" d="M 0 0 
L 0 8 
" style="stroke: #000000; stroke-width: 4"/>
      </defs>
      <g>
       <use xlink:href="#m734bc65f35" x="64.2125" y="232.36" style="stroke: #000000; stroke-width: 4"/>
      </g>
     </g>
     <g id="text_1">
      <!-- 0 -->
      <g transform="translate(59.75875 254.497813)scale(0.14 -0.14)">
       <defs>
        <path id="DejaVuSans-30" d="M 2034 4250 
Q 1547 4250 1301 3770 
Q 1056 3291 1056 2328 
Q 1056 1369 1301 889 
Q 1547 409 2034 409 
Q 2525 409 2770 889 
Q 3016 1369 3016 2328 
Q 3016 3291 2770 3770 
Q 2525 4250 2034 4250 
z
M 2034 4750 
Q 2819 4750 3233 4129 
Q 3647 3509 3647 2328 
Q 3647 1150 3233 529 
Q 2819 -91 2034 -91 
Q 1250 -91 836 529 
Q 422 1150 422 2328 
Q 422 3509 836 4129 
Q 1250 4750 2034 4750 
z
" transform="scale(0.015625)"/>
       </defs>
       <use xlink:href="#DejaVuSans-30"/>
      </g>
     </g>
    </g>
    <g id="xtick_2">
     <g id="line2d_2">
      <g>
       <use xlink:href="#m734bc65f35" x="133.8325" y="232.36" style="stroke: #000000; stroke-width: 4"/>
      </g>
     </g>
     <g id="text_2">
      <!-- 10 -->
      <g transform="translate(124.925 254.497813)scale(0.14 -0.14)">
       <defs>
        <path id="DejaVuSans-31" d="M 794 531 
L 1825 531 
L 1825 4091 
L 703 3866 
L 703 4441 
L 1819 4666 
L 2450 4666 
L 2450 531 
L 3481 531 
L 3481 0 
L 794 0 
L 794 531 
z
" transform="scale(0.015625)"/>
       </defs>
       <use xlink:href="#DejaVuSans-31"/>
       <use xlink:href="#DejaVuSans-30" x="63.623047"/>
      </g>
     </g>
    </g>
    <g id="xtick_3">
     <g id="line2d_3">
      <g>
       <use xlink:href="#m734bc65f35" x="203.4525" y="232.36" style="stroke: #000000; stroke-width: 4"/>
      </g>
     </g>
     <g id="text_3">
      <!-- 20 -->
      <g transform="translate(194.545 254.497813)scale(0.14 -0.14)">
       <defs>
        <path id="DejaVuSans-32" d="M 1228 531 
L 3431 531 
L 3431 0 
L 469 0 
L 469 531 
Q 828 903 1448 1529 
Q 2069 2156 2228 2338 
Q 2531 2678 2651 2914 
Q 2772 3150 2772 3378 
Q 2772 3750 2511 3984 
Q 2250 4219 1831 4219 
Q 1534 4219 1204 4116 
Q 875 4013 500 3803 
L 500 4441 
Q 881 4594 1212 4672 
Q 1544 4750 1819 4750 
Q 2544 4750 2975 4387 
Q 3406 4025 3406 3419 
Q 3406 3131 3298 2873 
Q 3191 2616 2906 2266 
Q 2828 2175 2409 1742 
Q 1991 1309 1228 531 
z
" transform="scale(0.015625)"/>
       </defs>
       <use xlink:href="#DejaVuSans-32"/>
       <use xlink:href="#DejaVuSans-30" x="63.623047"/>
      </g>
     </g>
    </g>
    <g id="xtick_4">
     <g id="line2d_4">
      <g>
       <use xlink:href="#m734bc65f35" x="273.0725" y="232.36" style="stroke: #000000; stroke-width: 4"/>
      </g>
     </g>
     <g id="text_4">
      <!-- 30 -->
      <g transform="translate(264.165 254.497813)scale(0.14 -0.14)">
       <defs>
        <path id="DejaVuSans-33" d="M 2597 2516 
Q 3050 2419 3304 2112 
Q 3559 1806 3559 1356 
Q 3559 666 3084 287 
Q 2609 -91 1734 -91 
Q 1441 -91 1130 -33 
Q 819 25 488 141 
L 488 750 
Q 750 597 1062 519 
Q 1375 441 1716 441 
Q 2309 441 2620 675 
Q 2931 909 2931 1356 
Q 2931 1769 2642 2001 
Q 2353 2234 1838 2234 
L 1294 2234 
L 1294 2753 
L 1863 2753 
Q 2328 2753 2575 2939 
Q 2822 3125 2822 3475 
Q 2822 3834 2567 4026 
Q 2313 4219 1838 4219 
Q 1578 4219 1281 4162 
Q 984 4106 628 3988 
L 628 4550 
Q 988 4650 1302 4700 
Q 1616 4750 1894 4750 
Q 2613 4750 3031 4423 
Q 3450 4097 3450 3541 
Q 3450 3153 3228 2886 
Q 3006 2619 2597 2516 
z
" transform="scale(0.015625)"/>
       </defs>
       <use xlink:href="#DejaVuSans-33"/>
       <use xlink:href="#DejaVuSans-30" x="63.623047"/>
      </g>
     </g>
    </g>
    <g id="xtick_5">
     <g id="line2d_5">
      <g>
       <use xlink:href="#m734bc65f35" x="342.6925" y="232.36" style="stroke: #000000; stroke-width: 4"/>
      </g>
     </g>
     <g id="text_5">
      <!-- 40 -->
      <g transform="translate(333.785 254.497813)scale(0.14 -0.14)">
       <defs>
        <path id="DejaVuSans-34" d="M 2419 4116 
L 825 1625 
L 2419 1625 
L 2419 4116 
z
M 2253 4666 
L 3047 4666 
L 3047 1625 
L 3713 1625 
L 3713 1100 
L 3047 1100 
L 3047 0 
L 2419 0 
L 2419 1100 
L 313 1100 
L 313 1709 
L 2253 4666 
z
" transform="scale(0.015625)"/>
       </defs>
       <use xlink:href="#DejaVuSans-34"/>
       <use xlink:href="#DejaVuSans-30" x="63.623047"/>
      </g>
     </g>
    </g>
    <g id="xtick_6">
     <g id="line2d_6">
      <g>
       <use xlink:href="#m734bc65f35" x="412.3125" y="232.36" style="stroke: #000000; stroke-width: 4"/>
      </g>
     </g>
     <g id="text_6">
      <!-- 50 -->
      <g transform="translate(403.405 254.497813)scale(0.14 -0.14)">
       <defs>
        <path id="DejaVuSans-35" d="M 691 4666 
L 3169 4666 
L 3169 4134 
L 1269 4134 
L 1269 2991 
Q 1406 3038 1543 3061 
Q 1681 3084 1819 3084 
Q 2600 3084 3056 2656 
Q 3513 2228 3513 1497 
Q 3513 744 3044 326 
Q 2575 -91 1722 -91 
Q 1428 -91 1123 -41 
Q 819 9 494 109 
L 494 744 
Q 775 591 1075 516 
Q 1375 441 1709 441 
Q 2250 441 2565 725 
Q 2881 1009 2881 1497 
Q 2881 1984 2565 2268 
Q 2250 2553 1709 2553 
Q 1456 2553 1204 2497 
Q 953 2441 691 2322 
L 691 4666 
z
" transform="scale(0.015625)"/>
       </defs>
       <use xlink:href="#DejaVuSans-35"/>
       <use xlink:href="#DejaVuSans-30" x="63.623047"/>
      </g>
     </g>
    </g>
    <g id="text_7">
     <!-- Trial -->
     <g transform="translate(221.92 273.566875)scale(0.16 -0.16)">
      <defs>
       <path id="DejaVuSans-54" d="M -19 4666 
L 3928 4666 
L 3928 4134 
L 2272 4134 
L 2272 0 
L 1638 0 
L 1638 4134 
L -19 4134 
L -19 4666 
z
" transform="scale(0.015625)"/>
       <path id="DejaVuSans-72" d="M 2631 2963 
Q 2534 3019 2420 3045 
Q 2306 3072 2169 3072 
Q 1681 3072 1420 2755 
Q 1159 2438 1159 1844 
L 1159 0 
L 581 0 
L 581 3500 
L 1159 3500 
L 1159 2956 
Q 1341 3275 1631 3429 
Q 1922 3584 2338 3584 
Q 2397 3584 2469 3576 
Q 2541 3569 2628 3553 
L 2631 2963 
z
" transform="scale(0.015625)"/>
       <path id="DejaVuSans-69" d="M 603 3500 
L 1178 3500 
L 1178 0 
L 603 0 
L 603 3500 
z
M 603 4863 
L 1178 4863 
L 1178 4134 
L 603 4134 
L 603 4863 
z
" transform="scale(0.015625)"/>
       <path id="DejaVuSans-61" d="M 2194 1759 
Q 1497 1759 1228 1600 
Q 959 1441 959 1056 
Q 959 750 1161 570 
Q 1363 391 1709 391 
Q 2188 391 2477 730 
Q 2766 1069 2766 1631 
L 2766 1759 
L 2194 1759 
z
M 3341 1997 
L 3341 0 
L 2766 0 
L 2766 531 
Q 2569 213 2275 61 
Q 1981 -91 1556 -91 
Q 1019 -91 701 211 
Q 384 513 384 1019 
Q 384 1609 779 1909 
Q 1175 2209 1959 2209 
L 2766 2209 
L 2766 2266 
Q 2766 2663 2505 2880 
Q 2244 3097 1772 3097 
Q 1472 3097 1187 3025 
Q 903 2953 641 2809 
L 641 3341 
Q 956 3463 1253 3523 
Q 1550 3584 1831 3584 
Q 2591 3584 2966 3190 
Q 3341 2797 3341 1997 
z
" transform="scale(0.015625)"/>
       <path id="DejaVuSans-6c" d="M 603 4863 
L 1178 4863 
L 1178 0 
L 603 0 
L 603 4863 
z
" transform="scale(0.015625)"/>
      </defs>
      <use xlink:href="#DejaVuSans-54"/>
      <use xlink:href="#DejaVuSans-72" x="46.333984"/>
      <use xlink:href="#DejaVuSans-69" x="87.447266"/>
      <use xlink:href="#DejaVuSans-61" x="115.230469"/>
      <use xlink:href="#DejaVuSans-6c" x="176.509766"/>
     </g>
    </g>
   </g>
   <g id="matplotlib.axis_2">
    <g id="ytick_1">
     <g id="line2d_7">
      <defs>
       <path id="mcec099edce" d="M 0 0 
L -8 0 
" style="stroke: #000000; stroke-width: 4"/>
      </defs>
      <g>
       <use xlink:href="#mcec099edce" x="64.2125" y="232.36" style="stroke: #000000; stroke-width: 4"/>
      </g>
     </g>
     <g id="text_8">
      <!-- 0.1 -->
      <g transform="translate(30.448125 237.678906)scale(0.14 -0.14)">
       <defs>
        <path id="DejaVuSans-2e" d="M 684 794 
L 1344 794 
L 1344 0 
L 684 0 
L 684 794 
z
" transform="scale(0.015625)"/>
       </defs>
       <use xlink:href="#DejaVuSans-30"/>
       <use xlink:href="#DejaVuSans-2e" x="63.623047"/>
       <use xlink:href="#DejaVuSans-31" x="95.410156"/>
      </g>
     </g>
    </g>
    <g id="ytick_2">
     <g id="line2d_8">
      <g>
       <use xlink:href="#mcec099edce" x="64.2125" y="205.34" style="stroke: #000000; stroke-width: 4"/>
      </g>
     </g>
     <g id="text_9">
      <!-- 0.2 -->
      <g transform="translate(30.448125 210.658906)scale(0.14 -0.14)">
       <use xlink:href="#DejaVuSans-30"/>
       <use xlink:href="#DejaVuSans-2e" x="63.623047"/>
       <use xlink:href="#DejaVuSans-32" x="95.410156"/>
      </g>
     </g>
    </g>
    <g id="ytick_3">
     <g id="line2d_9">
      <g>
       <use xlink:href="#mcec099edce" x="64.2125" y="178.32" style="stroke: #000000; stroke-width: 4"/>
      </g>
     </g>
     <g id="text_10">
      <!-- 0.3 -->
      <g transform="translate(30.448125 183.638906)scale(0.14 -0.14)">
       <use xlink:href="#DejaVuSans-30"/>
       <use xlink:href="#DejaVuSans-2e" x="63.623047"/>
       <use xlink:href="#DejaVuSans-33" x="95.410156"/>
      </g>
     </g>
    </g>
    <g id="ytick_4">
     <g id="line2d_10">
      <g>
       <use xlink:href="#mcec099edce" x="64.2125" y="151.3" style="stroke: #000000; stroke-width: 4"/>
      </g>
     </g>
     <g id="text_11">
      <!-- 0.4 -->
      <g transform="translate(30.448125 156.618906)scale(0.14 -0.14)">
       <use xlink:href="#DejaVuSans-30"/>
       <use xlink:href="#DejaVuSans-2e" x="63.623047"/>
       <use xlink:href="#DejaVuSans-34" x="95.410156"/>
      </g>
     </g>
    </g>
    <g id="ytick_5">
     <g id="line2d_11">
      <g>
       <use xlink:href="#mcec099edce" x="64.2125" y="124.28" style="stroke: #000000; stroke-width: 4"/>
      </g>
     </g>
     <g id="text_12">
      <!-- 0.5 -->
      <g transform="translate(30.448125 129.598906)scale(0.14 -0.14)">
       <use xlink:href="#DejaVuSans-30"/>
       <use xlink:href="#DejaVuSans-2e" x="63.623047"/>
       <use xlink:href="#DejaVuSans-35" x="95.410156"/>
      </g>
     </g>
    </g>
    <g id="ytick_6">
     <g id="line2d_12">
      <g>
       <use xlink:href="#mcec099edce" x="64.2125" y="97.26" style="stroke: #000000; stroke-width: 4"/>
      </g>
     </g>
     <g id="text_13">
      <!-- 0.6 -->
      <g transform="translate(30.448125 102.578906)scale(0.14 -0.14)">
       <defs>
        <path id="DejaVuSans-36" d="M 2113 2584 
Q 1688 2584 1439 2293 
Q 1191 2003 1191 1497 
Q 1191 994 1439 701 
Q 1688 409 2113 409 
Q 2538 409 2786 701 
Q 3034 994 3034 1497 
Q 3034 2003 2786 2293 
Q 2538 2584 2113 2584 
z
M 3366 4563 
L 3366 3988 
Q 3128 4100 2886 4159 
Q 2644 4219 2406 4219 
Q 1781 4219 1451 3797 
Q 1122 3375 1075 2522 
Q 1259 2794 1537 2939 
Q 1816 3084 2150 3084 
Q 2853 3084 3261 2657 
Q 3669 2231 3669 1497 
Q 3669 778 3244 343 
Q 2819 -91 2113 -91 
Q 1303 -91 875 529 
Q 447 1150 447 2328 
Q 447 3434 972 4092 
Q 1497 4750 2381 4750 
Q 2619 4750 2861 4703 
Q 3103 4656 3366 4563 
z
" transform="scale(0.015625)"/>
       </defs>
       <use xlink:href="#DejaVuSans-30"/>
       <use xlink:href="#DejaVuSans-2e" x="63.623047"/>
       <use xlink:href="#DejaVuSans-36" x="95.410156"/>
      </g>
     </g>
    </g>
    <g id="ytick_7">
     <g id="line2d_13">
      <g>
       <use xlink:href="#mcec099edce" x="64.2125" y="70.24" style="stroke: #000000; stroke-width: 4"/>
      </g>
     </g>
     <g id="text_14">
      <!-- 0.7 -->
      <g transform="translate(30.448125 75.558906)scale(0.14 -0.14)">
       <defs>
        <path id="DejaVuSans-37" d="M 525 4666 
L 3525 4666 
L 3525 4397 
L 1831 0 
L 1172 0 
L 2766 4134 
L 525 4134 
L 525 4666 
z
" transform="scale(0.015625)"/>
       </defs>
       <use xlink:href="#DejaVuSans-30"/>
       <use xlink:href="#DejaVuSans-2e" x="63.623047"/>
       <use xlink:href="#DejaVuSans-37" x="95.410156"/>
      </g>
     </g>
    </g>
    <g id="ytick_8">
     <g id="line2d_14">
      <g>
       <use xlink:href="#mcec099edce" x="64.2125" y="43.22" style="stroke: #000000; stroke-width: 4"/>
      </g>
     </g>
     <g id="text_15">
      <!-- 0.8 -->
      <g transform="translate(30.448125 48.538906)scale(0.14 -0.14)">
       <defs>
        <path id="DejaVuSans-38" d="M 2034 2216 
Q 1584 2216 1326 1975 
Q 1069 1734 1069 1313 
Q 1069 891 1326 650 
Q 1584 409 2034 409 
Q 2484 409 2743 651 
Q 3003 894 3003 1313 
Q 3003 1734 2745 1975 
Q 2488 2216 2034 2216 
z
M 1403 2484 
Q 997 2584 770 2862 
Q 544 3141 544 3541 
Q 544 4100 942 4425 
Q 1341 4750 2034 4750 
Q 2731 4750 3128 4425 
Q 3525 4100 3525 3541 
Q 3525 3141 3298 2862 
Q 3072 2584 2669 2484 
Q 3125 2378 3379 2068 
Q 3634 1759 3634 1313 
Q 3634 634 3220 271 
Q 2806 -91 2034 -91 
Q 1263 -91 848 271 
Q 434 634 434 1313 
Q 434 1759 690 2068 
Q 947 2378 1403 2484 
z
M 1172 3481 
Q 1172 3119 1398 2916 
Q 1625 2713 2034 2713 
Q 2441 2713 2670 2916 
Q 2900 3119 2900 3481 
Q 2900 3844 2670 4047 
Q 2441 4250 2034 4250 
Q 1625 4250 1398 4047 
Q 1172 3844 1172 3481 
z
" transform="scale(0.015625)"/>
       </defs>
       <use xlink:href="#DejaVuSans-30"/>
       <use xlink:href="#DejaVuSans-2e" x="63.623047"/>
       <use xlink:href="#DejaVuSans-38" x="95.410156"/>
      </g>
     </g>
    </g>
    <g id="ytick_9">
     <g id="line2d_15">
      <g>
       <use xlink:href="#mcec099edce" x="64.2125" y="16.2" style="stroke: #000000; stroke-width: 4"/>
      </g>
     </g>
     <g id="text_16">
      <!-- 0.9 -->
      <g transform="translate(30.448125 21.518906)scale(0.14 -0.14)">
       <defs>
        <path id="DejaVuSans-39" d="M 703 97 
L 703 672 
Q 941 559 1184 500 
Q 1428 441 1663 441 
Q 2288 441 2617 861 
Q 2947 1281 2994 2138 
Q 2813 1869 2534 1725 
Q 2256 1581 1919 1581 
Q 1219 1581 811 2004 
Q 403 2428 403 3163 
Q 403 3881 828 4315 
Q 1253 4750 1959 4750 
Q 2769 4750 3195 4129 
Q 3622 3509 3622 2328 
Q 3622 1225 3098 567 
Q 2575 -91 1691 -91 
Q 1453 -91 1209 -44 
Q 966 3 703 97 
z
M 1959 2075 
Q 2384 2075 2632 2365 
Q 2881 2656 2881 3163 
Q 2881 3666 2632 3958 
Q 2384 4250 1959 4250 
Q 1534 4250 1286 3958 
Q 1038 3666 1038 3163 
Q 1038 2656 1286 2365 
Q 1534 2075 1959 2075 
z
" transform="scale(0.015625)"/>
       </defs>
       <use xlink:href="#DejaVuSans-30"/>
       <use xlink:href="#DejaVuSans-2e" x="63.623047"/>
       <use xlink:href="#DejaVuSans-39" x="95.410156"/>
      </g>
     </g>
    </g>
    <g id="text_17">
     <!-- Correct Proportion of Bets -->
     <g transform="translate(23.120625 227.80375)rotate(-90)scale(0.16 -0.16)">
      <defs>
       <path id="DejaVuSans-43" d="M 4122 4306 
L 4122 3641 
Q 3803 3938 3442 4084 
Q 3081 4231 2675 4231 
Q 1875 4231 1450 3742 
Q 1025 3253 1025 2328 
Q 1025 1406 1450 917 
Q 1875 428 2675 428 
Q 3081 428 3442 575 
Q 3803 722 4122 1019 
L 4122 359 
Q 3791 134 3420 21 
Q 3050 -91 2638 -91 
Q 1578 -91 968 557 
Q 359 1206 359 2328 
Q 359 3453 968 4101 
Q 1578 4750 2638 4750 
Q 3056 4750 3426 4639 
Q 3797 4528 4122 4306 
z
" transform="scale(0.015625)"/>
       <path id="DejaVuSans-6f" d="M 1959 3097 
Q 1497 3097 1228 2736 
Q 959 2375 959 1747 
Q 959 1119 1226 758 
Q 1494 397 1959 397 
Q 2419 397 2687 759 
Q 2956 1122 2956 1747 
Q 2956 2369 2687 2733 
Q 2419 3097 1959 3097 
z
M 1959 3584 
Q 2709 3584 3137 3096 
Q 3566 2609 3566 1747 
Q 3566 888 3137 398 
Q 2709 -91 1959 -91 
Q 1206 -91 779 398 
Q 353 888 353 1747 
Q 353 2609 779 3096 
Q 1206 3584 1959 3584 
z
" transform="scale(0.015625)"/>
       <path id="DejaVuSans-65" d="M 3597 1894 
L 3597 1613 
L 953 1613 
Q 991 1019 1311 708 
Q 1631 397 2203 397 
Q 2534 397 2845 478 
Q 3156 559 3463 722 
L 3463 178 
Q 3153 47 2828 -22 
Q 2503 -91 2169 -91 
Q 1331 -91 842 396 
Q 353 884 353 1716 
Q 353 2575 817 3079 
Q 1281 3584 2069 3584 
Q 2775 3584 3186 3129 
Q 3597 2675 3597 1894 
z
M 3022 2063 
Q 3016 2534 2758 2815 
Q 2500 3097 2075 3097 
Q 1594 3097 1305 2825 
Q 1016 2553 972 2059 
L 3022 2063 
z
" transform="scale(0.015625)"/>
       <path id="DejaVuSans-63" d="M 3122 3366 
L 3122 2828 
Q 2878 2963 2633 3030 
Q 2388 3097 2138 3097 
Q 1578 3097 1268 2742 
Q 959 2388 959 1747 
Q 959 1106 1268 751 
Q 1578 397 2138 397 
Q 2388 397 2633 464 
Q 2878 531 3122 666 
L 3122 134 
Q 2881 22 2623 -34 
Q 2366 -91 2075 -91 
Q 1284 -91 818 406 
Q 353 903 353 1747 
Q 353 2603 823 3093 
Q 1294 3584 2113 3584 
Q 2378 3584 2631 3529 
Q 2884 3475 3122 3366 
z
" transform="scale(0.015625)"/>
       <path id="DejaVuSans-74" d="M 1172 4494 
L 1172 3500 
L 2356 3500 
L 2356 3053 
L 1172 3053 
L 1172 1153 
Q 1172 725 1289 603 
Q 1406 481 1766 481 
L 2356 481 
L 2356 0 
L 1766 0 
Q 1100 0 847 248 
Q 594 497 594 1153 
L 594 3053 
L 172 3053 
L 172 3500 
L 594 3500 
L 594 4494 
L 1172 4494 
z
" transform="scale(0.015625)"/>
       <path id="DejaVuSans-20" transform="scale(0.015625)"/>
       <path id="DejaVuSans-50" d="M 1259 4147 
L 1259 2394 
L 2053 2394 
Q 2494 2394 2734 2622 
Q 2975 2850 2975 3272 
Q 2975 3691 2734 3919 
Q 2494 4147 2053 4147 
L 1259 4147 
z
M 628 4666 
L 2053 4666 
Q 2838 4666 3239 4311 
Q 3641 3956 3641 3272 
Q 3641 2581 3239 2228 
Q 2838 1875 2053 1875 
L 1259 1875 
L 1259 0 
L 628 0 
L 628 4666 
z
" transform="scale(0.015625)"/>
       <path id="DejaVuSans-70" d="M 1159 525 
L 1159 -1331 
L 581 -1331 
L 581 3500 
L 1159 3500 
L 1159 2969 
Q 1341 3281 1617 3432 
Q 1894 3584 2278 3584 
Q 2916 3584 3314 3078 
Q 3713 2572 3713 1747 
Q 3713 922 3314 415 
Q 2916 -91 2278 -91 
Q 1894 -91 1617 61 
Q 1341 213 1159 525 
z
M 3116 1747 
Q 3116 2381 2855 2742 
Q 2594 3103 2138 3103 
Q 1681 3103 1420 2742 
Q 1159 2381 1159 1747 
Q 1159 1113 1420 752 
Q 1681 391 2138 391 
Q 2594 391 2855 752 
Q 3116 1113 3116 1747 
z
" transform="scale(0.015625)"/>
       <path id="DejaVuSans-6e" d="M 3513 2113 
L 3513 0 
L 2938 0 
L 2938 2094 
Q 2938 2591 2744 2837 
Q 2550 3084 2163 3084 
Q 1697 3084 1428 2787 
Q 1159 2491 1159 1978 
L 1159 0 
L 581 0 
L 581 3500 
L 1159 3500 
L 1159 2956 
Q 1366 3272 1645 3428 
Q 1925 3584 2291 3584 
Q 2894 3584 3203 3211 
Q 3513 2838 3513 2113 
z
" transform="scale(0.015625)"/>
       <path id="DejaVuSans-66" d="M 2375 4863 
L 2375 4384 
L 1825 4384 
Q 1516 4384 1395 4259 
Q 1275 4134 1275 3809 
L 1275 3500 
L 2222 3500 
L 2222 3053 
L 1275 3053 
L 1275 0 
L 697 0 
L 697 3053 
L 147 3053 
L 147 3500 
L 697 3500 
L 697 3744 
Q 697 4328 969 4595 
Q 1241 4863 1831 4863 
L 2375 4863 
z
" transform="scale(0.015625)"/>
       <path id="DejaVuSans-42" d="M 1259 2228 
L 1259 519 
L 2272 519 
Q 2781 519 3026 730 
Q 3272 941 3272 1375 
Q 3272 1813 3026 2020 
Q 2781 2228 2272 2228 
L 1259 2228 
z
M 1259 4147 
L 1259 2741 
L 2194 2741 
Q 2656 2741 2882 2914 
Q 3109 3088 3109 3444 
Q 3109 3797 2882 3972 
Q 2656 4147 2194 4147 
L 1259 4147 
z
M 628 4666 
L 2241 4666 
Q 2963 4666 3353 4366 
Q 3744 4066 3744 3513 
Q 3744 3084 3544 2831 
Q 3344 2578 2956 2516 
Q 3422 2416 3680 2098 
Q 3938 1781 3938 1306 
Q 3938 681 3513 340 
Q 3088 0 2303 0 
L 628 0 
L 628 4666 
z
" transform="scale(0.015625)"/>
       <path id="DejaVuSans-73" d="M 2834 3397 
L 2834 2853 
Q 2591 2978 2328 3040 
Q 2066 3103 1784 3103 
Q 1356 3103 1142 2972 
Q 928 2841 928 2578 
Q 928 2378 1081 2264 
Q 1234 2150 1697 2047 
L 1894 2003 
Q 2506 1872 2764 1633 
Q 3022 1394 3022 966 
Q 3022 478 2636 193 
Q 2250 -91 1575 -91 
Q 1294 -91 989 -36 
Q 684 19 347 128 
L 347 722 
Q 666 556 975 473 
Q 1284 391 1588 391 
Q 1994 391 2212 530 
Q 2431 669 2431 922 
Q 2431 1156 2273 1281 
Q 2116 1406 1581 1522 
L 1381 1569 
Q 847 1681 609 1914 
Q 372 2147 372 2553 
Q 372 3047 722 3315 
Q 1072 3584 1716 3584 
Q 2034 3584 2315 3537 
Q 2597 3491 2834 3397 
z
" transform="scale(0.015625)"/>
      </defs>
      <use xlink:href="#DejaVuSans-43"/>
      <use xlink:href="#DejaVuSans-6f" x="69.824219"/>
      <use xlink:href="#DejaVuSans-72" x="131.005859"/>
      <use xlink:href="#DejaVuSans-72" x="170.369141"/>
      <use xlink:href="#DejaVuSans-65" x="209.232422"/>
      <use xlink:href="#DejaVuSans-63" x="270.755859"/>
      <use xlink:href="#DejaVuSans-74" x="325.736328"/>
      <use xlink:href="#DejaVuSans-20" x="364.945312"/>
      <use xlink:href="#DejaVuSans-50" x="396.732422"/>
      <use xlink:href="#DejaVuSans-72" x="455.285156"/>
      <use xlink:href="#DejaVuSans-6f" x="494.148438"/>
      <use xlink:href="#DejaVuSans-70" x="555.330078"/>
      <use xlink:href="#DejaVuSans-6f" x="618.806641"/>
      <use xlink:href="#DejaVuSans-72" x="679.988281"/>
      <use xlink:href="#DejaVuSans-74" x="721.101562"/>
      <use xlink:href="#DejaVuSans-69" x="760.310547"/>
      <use xlink:href="#DejaVuSans-6f" x="788.09375"/>
      <use xlink:href="#DejaVuSans-6e" x="849.275391"/>
      <use xlink:href="#DejaVuSans-20" x="912.654297"/>
      <use xlink:href="#DejaVuSans-6f" x="944.441406"/>
      <use xlink:href="#DejaVuSans-66" x="1005.623047"/>
      <use xlink:href="#DejaVuSans-20" x="1040.828125"/>
      <use xlink:href="#DejaVuSans-42" x="1072.615234"/>
      <use xlink:href="#DejaVuSans-65" x="1141.21875"/>
      <use xlink:href="#DejaVuSans-74" x="1202.742188"/>
      <use xlink:href="#DejaVuSans-73" x="1241.951172"/>
     </g>
    </g>
   </g>
   <g id="line2d_16">
    <path d="M 71.1745 124.738171 
L 78.1365 108.189249 
L 85.0985 93.171187 
L 92.0605 82.173658 
L 99.0225 77.04449 
L 105.9845 75.996099 
L 112.9465 76.426646 
L 119.9085 77.564756 
L 126.8705 72.417643 
L 133.8325 70.806606 
L 140.7945 72.062454 
L 147.7565 74.318445 
L 154.7185 75.504981 
L 161.6805 75.132965 
L 168.6425 74.060631 
L 175.6045 72.14209 
L 182.5665 70.307665 
L 189.5285 69.011959 
L 196.4905 68.257592 
L 203.4525 67.960281 
L 210.4145 67.695313 
L 217.3765 67.300762 
L 224.3385 66.692131 
L 231.3005 66.117674 
L 238.2625 65.524171 
L 245.2245 64.961478 
L 252.1865 64.610137 
L 259.1485 64.567985 
L 266.1105 64.547515 
L 273.0725 64.342251 
L 280.0345 63.951644 
L 286.9965 63.617939 
L 293.9585 63.677634 
L 300.9205 63.927524 
L 307.8825 64.067627 
L 314.8445 64.025874 
L 321.8065 63.995971 
L 328.7685 64.079917 
L 335.7305 64.247908 
L 342.6925 64.486641 
L 349.6545 64.717536 
L 356.6165 64.853042 
L 363.5785 65.079094 
L 370.5405 65.277249 
L 377.5025 65.522639 
L 384.4645 65.719093 
L 391.4265 65.949048 
L 398.3885 66.000586 
L 405.3505 65.96846 
L 412.3125 66.152032 
" clip-path="url(#p42af09115c)" style="fill: none; stroke: #08306b; stroke-width: 2.5; stroke-linecap: square"/>
   </g>
   <g id="line2d_17">
    <path d="M 71.1745 123.928398 
L 78.1365 107.763638 
L 85.0985 94.714614 
L 92.0605 85.324263 
L 99.0225 80.969524 
L 105.9845 79.74688 
L 112.9465 79.715067 
L 119.9085 80.62239 
L 126.8705 76.564034 
L 133.8325 76.579778 
L 140.7945 79.206085 
L 147.7565 82.905475 
L 154.7185 85.620539 
L 161.6805 86.890185 
L 168.6425 87.467761 
L 175.6045 87.253553 
L 182.5665 86.55713 
L 189.5285 85.737406 
L 196.4905 85.535496 
L 203.4525 85.751472 
L 210.4145 86.047607 
L 217.3765 86.451035 
L 224.3385 86.702523 
L 231.3005 86.919544 
L 238.2625 87.030056 
L 245.2245 87.258766 
L 252.1865 87.468388 
L 259.1485 87.651539 
L 266.1105 87.839032 
L 273.0725 88.212458 
L 280.0345 88.725705 
L 286.9965 89.127248 
L 293.9585 89.792397 
L 300.9205 90.368698 
L 307.8825 90.480889 
L 314.8445 90.560562 
L 321.8065 90.896909 
L 328.7685 91.232607 
L 335.7305 91.405937 
L 342.6925 91.517258 
L 349.6545 91.320409 
L 356.6165 91.15525 
L 363.5785 91.400404 
L 370.5405 91.559713 
L 377.5025 91.592163 
L 384.4645 91.306068 
L 391.4265 91.083136 
L 398.3885 91.110462 
L 405.3505 91.494628 
L 412.3125 91.924435 
" clip-path="url(#p42af09115c)" style="fill: none; stroke: #3787c0; stroke-width: 2.5; stroke-linecap: square"/>
   </g>
   <g id="line2d_18">
    <path d="M 71.1745 123.630631 
L 78.1365 108.543385 
L 85.0985 96.858308 
L 92.0605 89.434418 
L 99.0225 85.253161 
L 105.9845 84.113293 
L 112.9465 84.291699 
L 119.9085 85.224535 
L 126.8705 81.998377 
L 133.8325 82.92704 
L 140.7945 86.547681 
L 147.7565 91.404315 
L 154.7185 96.465758 
L 161.6805 100.458757 
L 168.6425 103.716603 
L 175.6045 106.228712 
L 182.5665 107.999001 
L 189.5285 109.557831 
L 196.4905 110.902544 
L 203.4525 111.863566 
L 210.4145 112.782195 
L 217.3765 113.643889 
L 224.3385 114.480465 
L 231.3005 115.367102 
L 238.2625 116.325135 
L 245.2245 117.202209 
L 252.1865 117.979928 
L 259.1485 118.578011 
L 266.1105 118.98005 
L 273.0725 119.388719 
L 280.0345 119.707351 
L 286.9965 120.038047 
L 293.9585 120.296739 
L 300.9205 120.432605 
L 307.8825 120.675795 
L 314.8445 121.067585 
L 321.8065 121.378289 
L 328.7685 121.700149 
L 335.7305 121.859399 
L 342.6925 121.891628 
L 349.6545 122.032803 
L 356.6165 122.192456 
L 363.5785 122.437048 
L 370.5405 122.647429 
L 377.5025 122.871415 
L 384.4645 123.076381 
L 391.4265 123.418399 
L 398.3885 123.869691 
L 405.3505 124.13718 
L 412.3125 124.18828 
" clip-path="url(#p42af09115c)" style="fill: none; stroke: #abd0e6; stroke-width: 2.5; stroke-linecap: square"/>
   </g>
   <g id="patch_3">
    <path d="M 64.2125 232.36 
L 64.2125 16.2 
" style="fill: none; stroke: #000000; stroke-width: 4; stroke-linejoin: miter; stroke-linecap: square"/>
   </g>
   <g id="patch_4">
    <path d="M 64.2125 232.36 
L 412.3125 232.36 
" style="fill: none; stroke: #000000; stroke-width: 4; stroke-linejoin: miter; stroke-linecap: square"/>
   </g>
   <g id="legend_1">
    <g id="patch_5">
     <path d="M 71.2125 227.36 
L 147.1525 227.36 
Q 149.1525 227.36 149.1525 225.36 
L 149.1525 173.53 
Q 149.1525 171.53 147.1525 171.53 
L 71.2125 171.53 
Q 69.2125 171.53 69.2125 173.53 
L 69.2125 225.36 
Q 69.2125 227.36 71.2125 227.36 
z
" style="fill: #ffffff; opacity: 0.8; stroke: #cccccc; stroke-linejoin: miter"/>
    </g>
    <g id="line2d_19">
     <path d="M 73.2125 181.91 
L 83.2125 181.91 
L 93.2125 181.91 
" style="fill: none; stroke: #08306b; stroke-width: 4; stroke-linecap: square"/>
    </g>
    <g id="text_18">
     <!-- $\xi=$1 -->
     <g transform="translate(101.2125 185.41)scale(0.13 -0.13)">
      <defs>
       <path id="DejaVuSans-Oblique-3be" d="M 2016 397 
Q 2428 394 2628 159 
Q 2844 -88 2772 -463 
Q 2700 -822 2422 -1072 
Q 2119 -1344 1609 -1344 
Q 1656 -1109 1700 -872 
Q 1913 -888 2072 -750 
Q 2194 -641 2216 -525 
Q 2247 -359 2175 -222 
Q 2100 -91 1922 -91 
Q -25 -91 241 1275 
Q 422 2213 1516 2488 
Q 663 2600 822 3413 
Q 941 4028 1678 4284 
L 1028 4284 
L 1141 4863 
L 3606 4863 
L 3494 4284 
Q 1528 4284 1350 3375 
Q 1234 2778 2881 2750 
L 2778 2219 
Q 1009 2288 819 1275 
Q 659 428 2016 397 
z
" transform="scale(0.015625)"/>
       <path id="DejaVuSans-3d" d="M 678 2906 
L 4684 2906 
L 4684 2381 
L 678 2381 
L 678 2906 
z
M 678 1631 
L 4684 1631 
L 4684 1100 
L 678 1100 
L 678 1631 
z
" transform="scale(0.015625)"/>
      </defs>
      <use xlink:href="#DejaVuSans-Oblique-3be" transform="translate(0 0.015625)"/>
      <use xlink:href="#DejaVuSans-3d" transform="translate(75.244141 0.015625)"/>
      <use xlink:href="#DejaVuSans-31" transform="translate(178.515625 0.015625)"/>
     </g>
    </g>
    <g id="line2d_20">
     <path d="M 73.2125 199.52 
L 83.2125 199.52 
L 93.2125 199.52 
" style="fill: none; stroke: #3787c0; stroke-width: 4; stroke-linecap: square"/>
    </g>
    <g id="text_19">
     <!-- $\xi=$0.5 -->
     <g transform="translate(101.2125 203.02)scale(0.13 -0.13)">
      <use xlink:href="#DejaVuSans-Oblique-3be" transform="translate(0 0.015625)"/>
      <use xlink:href="#DejaVuSans-3d" transform="translate(75.244141 0.015625)"/>
      <use xlink:href="#DejaVuSans-30" transform="translate(178.515625 0.015625)"/>
      <use xlink:href="#DejaVuSans-2e" transform="translate(242.138672 0.015625)"/>
      <use xlink:href="#DejaVuSans-35" transform="translate(273.925781 0.015625)"/>
     </g>
    </g>
    <g id="line2d_21">
     <path d="M 73.2125 217.13 
L 83.2125 217.13 
L 93.2125 217.13 
" style="fill: none; stroke: #abd0e6; stroke-width: 4; stroke-linecap: square"/>
    </g>
    <g id="text_20">
     <!-- $\xi=$0 -->
     <g transform="translate(101.2125 220.63)scale(0.13 -0.13)">
      <use xlink:href="#DejaVuSans-Oblique-3be" transform="translate(0 0.015625)"/>
      <use xlink:href="#DejaVuSans-3d" transform="translate(75.244141 0.015625)"/>
      <use xlink:href="#DejaVuSans-30" transform="translate(178.515625 0.015625)"/>
     </g>
    </g>
   </g>
  </g>
 </g>
 <defs>
  <clipPath id="p42af09115c">
   <rect x="64.2125" y="16.2" width="348.1" height="216.16"/>
  </clipPath>
 </defs>
</svg>
